<svg width="32" height="32" viewBox="0 0 32 32" fill="none" xmlns="http://www.w3.org/2000/svg">
  <rect width="32" height="32" rx="8" fill="#D7B25A" />
  <path
    d="M16 7.5c2.65 2.05 5.1 3.12 7.5 3.12v7.44c0 4.84-3.32 7.17-7.19 8.63a1 1 0 0 1-.62 0C12.82 25.23 9.5 22.9 9.5 18.06v-7.44C11.9 10.62 13.35 9.55 16 7.5Z"
    fill="#14110F"
    opacity="0.92"
  />
  <path
    d="M16 9.1c2.28 1.68 4.43 2.56 6.42 2.56v6.4c0 4.18-2.86 6.17-6.2 7.45a.9.9 0 0 1-.44 0c-3.34-1.28-6.2-3.27-6.2-7.45v-6.4c1.99 0 4.14-.88 6.42-2.56Z"
    fill="none"
    stroke="#14110F"
    stroke-width="1.2"
    opacity="0.72"
  />
</svg>
